# xmcd
#
# Track frame offsets: 
#        150
#        16012
#        31327
#        52185
#        67837
#        89140
#        102125
#        123572
#        137137
#        155470
#
# Disc length: 2358 seconds
#
# Revision: 2
# Processed by: cddbd v1.5.2PL0 Copyright (c) Steve Scherf et al.
# Submitted via: ExactAudioCopy v0.90b4
#
DISCID=8209340a
DTITLE=Robin Trower - Someday Blues
DYEAR=1997
DGENRE=Classic Rock
TTITLE0=Next In Line
TTITLE1=Feel So Bad
TTITLE2=Someday Blues
TTITLE3=Cossroads
TTITLE4=I Want You to Love Me
TTITLE5=Inside Out
TTITLE6=Shining Through
TTITLE7=Looking for a True Love
TTITLE8=Extermination Blues
TTITLE9=Sweet Little Angel
EXTD=
EXTT0=
EXTT1=
EXTT2=
EXTT3=
EXTT4=
EXTT5=
EXTT6=
EXTT7=
EXTT8=
EXTT9=
PLAYORDER=
